<?xml version="1.0" encoding="UTF-8" standalone="no"?>
<svg
   xmlns:dc="http://purl.org/dc/elements/1.1/"
   xmlns:cc="http://creativecommons.org/ns#"
   xmlns:rdf="http://www.w3.org/1999/02/22-rdf-syntax-ns#"
   xmlns:svg="http://www.w3.org/2000/svg"
   xmlns="http://www.w3.org/2000/svg"
   xmlns:sodipodi="http://sodipodi.sourceforge.net/DTD/sodipodi-0.dtd"
   xmlns:inkscape="http://www.inkscape.org/namespaces/inkscape"
   sodipodi:docname="detailed_logging.svg"
   inkscape:version="1.0 (4035a4fb49, 2020-05-01)"
   id="svg845"
   version="1.1"
   viewBox="0 0 512 128"
   height="128mm"
   width="512mm">
  <defs
     id="defs839">
    <rect
       id="rect1412"
       height="30.238093"
       width="190.5"
       y="14.363095"
       x="9.0714286" />
  </defs>
  <sodipodi:namedview
     inkscape:window-maximized="1"
     inkscape:window-y="-8"
     inkscape:window-x="1358"
     inkscape:window-height="1017"
     inkscape:window-width="1920"
     showgrid="false"
     inkscape:document-rotation="0"
     inkscape:current-layer="layer1"
     inkscape:document-units="mm"
     inkscape:cy="933.60823"
     inkscape:cx="1596.99"
     inkscape:zoom="0.24748737"
     inkscape:pageshadow="2"
     inkscape:pageopacity="0.0"
     borderopacity="1.0"
     bordercolor="#666666"
     pagecolor="#ffffff"
     id="base" />
  <metadata
     id="metadata842">
    <rdf:RDF>
      <cc:Work
         rdf:about="">
        <dc:format>image/svg+xml</dc:format>
        <dc:type
           rdf:resource="http://purl.org/dc/dcmitype/StillImage" />
        <dc:title></dc:title>
      </cc:Work>
    </rdf:RDF>
  </metadata>
  <g
     id="layer1"
     inkscape:groupmode="layer"
     inkscape:label="Layer 1">
    <text
       transform="matrix(2.291188,0,0,2.291188,90.74372,2.4555836)"
       style="font-style:normal;font-weight:normal;font-size:19.7556px;line-height:1.25;font-family:sans-serif;letter-spacing:0px;word-spacing:0px;white-space:pre;shape-inside:url(#rect1412);fill:#000000;fill-opacity:1;stroke:none;"
       id="text1410"
       xml:space="preserve"><tspan
         x="9.0722656"
         y="32.442313"><tspan
           style="font-style:normal;font-variant:normal;font-weight:normal;font-stretch:normal;font-size:19.7556px;font-family:Comfortaa;-inkscape-font-specification:Comfortaa">Detailed Logging</tspan></tspan></text>
    <path
       style="stroke-width:0.206119"
       fill="--clipboard"
       d="M 69.255692,24.425318 H 52.766239 c 0,-7.275971 -5.91559,-13.191561 -13.191559,-13.191561 -7.275969,0 -13.191559,5.91559 -13.191559,13.191561 H 9.893671 C 4.431539,24.425318 0,28.856859 0,34.318987 v 72.553583 c 0,5.46212 4.431539,9.89367 9.893671,9.89367 h 59.362021 c 5.462132,0 9.89367,-4.43155 9.89367,-9.89367 V 34.318987 c 0,-5.462129 -4.431538,-9.893669 -9.89367,-9.893669 z M 19.787341,98.627835 c -2.741371,0 -4.946836,-2.205463 -4.946836,-4.946833 0,-2.741369 2.205465,-4.94683 4.946836,-4.94683 2.741369,0 4.946835,2.205461 4.946835,4.94683 0,2.74137 -2.205466,4.946833 -4.946835,4.946833 z m 0,-19.787333 c -2.741371,0 -4.946836,-2.205462 -4.946836,-4.946834 0,-2.741371 2.205465,-4.946834 4.946836,-4.946834 2.741369,0 4.946835,2.205463 4.946835,4.946834 0,2.741372 -2.205466,4.946834 -4.946835,4.946834 z m 0,-19.787339 c -2.741371,0 -4.946836,-2.205464 -4.946836,-4.946836 0,-2.74137 2.205465,-4.946834 4.946836,-4.946834 2.741369,0 4.946835,2.205464 4.946835,4.946834 0,2.741372 -2.205466,4.946836 -4.946835,4.946836 z M 39.57468,19.478483 c 2.741371,0 4.946835,2.205465 4.946835,4.946835 0,2.741373 -2.205464,4.946836 -4.946835,4.946836 -2.74137,0 -4.946835,-2.205463 -4.946835,-4.946836 0,-2.74137 2.205465,-4.946835 4.946835,-4.946835 z M 65.957805,95.32995 c 0,0.906921 -0.742025,1.648948 -1.648948,1.648948 H 34.627845 c -0.90692,0 -1.648945,-0.742026 -1.648945,-1.648948 v -3.297884 c 0,-0.906922 0.742025,-1.648948 1.648945,-1.648948 h 29.681012 c 0.906923,0 1.648948,0.742025 1.648948,1.648948 z m 0,-19.787336 c 0,0.906919 -0.742025,1.648945 -1.648948,1.648945 H 34.627845 c -0.90692,0 -1.648945,-0.742026 -1.648945,-1.648945 v -3.297891 c 0,-0.90692 0.742025,-1.648945 1.648945,-1.648945 h 29.681012 c 0.906923,0 1.648948,0.742025 1.648948,1.648945 z m 0,-19.78734 c 0,0.906921 -0.742025,1.648945 -1.648948,1.648945 H 34.627845 c -0.90692,0 -1.648945,-0.742024 -1.648945,-1.648945 v -3.29789 c 0,-0.90692 0.742025,-1.648945 1.648945,-1.648945 h 29.681012 c 0.906923,0 1.648948,0.742025 1.648948,1.648945 z"
       id="path1514" />
  </g>
  <style
     type="text/css"
     id="style1450">
	.st0{fill:#FFE500;}
	.st1{fill:#EBCB00;}
	.st2{fill:#FFF48C;}
	.st3{opacity:0.15;fill:#45413C;}
	.st4{fill:none;stroke:#45413C;stroke-linecap:round;stroke-linejoin:round;stroke-miterlimit:10;}
	.st5{fill:#FFAA54;}
	.st6{fill:#FFB0CA;stroke:#45413C;stroke-linecap:round;stroke-linejoin:round;stroke-miterlimit:10;}
	.st7{fill:#FF87AF;stroke:#45413C;stroke-linecap:round;stroke-linejoin:round;stroke-miterlimit:10;}
	.st8{fill:#00B8F0;}
	.st9{fill:#4ACFFF;}
	.st10{fill:#FFFFFF;stroke:#45413C;stroke-linecap:round;stroke-linejoin:round;stroke-miterlimit:10;}
	.st11{fill:#45413C;stroke:#45413C;stroke-linecap:round;stroke-linejoin:round;stroke-miterlimit:10;}
	.st12{fill:#009FD9;}
	.st13{fill:none;stroke:#45413C;stroke-linecap:round;stroke-miterlimit:10;}
	.st14{fill:#FFFFFF;stroke:#45413C;stroke-linejoin:round;stroke-miterlimit:10;}
	.st15{fill:#FF6242;}
	.st16{fill:#FF866E;}
	.st17{fill:#656769;}
	.st18{fill:#87898C;}
	.st19{fill:#4AEFF7;stroke:#45413C;stroke-linecap:round;stroke-linejoin:round;stroke-miterlimit:10;}
	.st20{fill:none;stroke:#48CF3E;stroke-linecap:round;stroke-linejoin:round;stroke-miterlimit:10;}
	.st21{fill:none;stroke:#FF4064;stroke-linecap:round;stroke-linejoin:round;stroke-miterlimit:10;}
	.st22{fill:none;stroke:#FFB700;stroke-linecap:round;stroke-linejoin:round;stroke-miterlimit:10;}
	.st23{fill:none;stroke:#00AED9;stroke-linecap:round;stroke-linejoin:round;stroke-miterlimit:10;}
	.st24{fill:#FFFACF;}
	.st25{fill:#45413C;}
	.st26{fill:#FF866E;stroke:#45413C;stroke-linecap:round;stroke-linejoin:round;stroke-miterlimit:10;}
	.st27{fill:#DABFF5;stroke:#45413C;stroke-linejoin:round;stroke-miterlimit:10;}
	.st28{fill:#EDDBFF;}
	.st29{fill:none;stroke:#45413C;stroke-linejoin:round;stroke-miterlimit:10;}
	.st30{fill:#6DD627;}
	.st31{fill:#46B000;}
	.st32{fill:#C8FFA1;}
	.st33{fill:url(#XMLID_91_);}
	.st34{fill:url(#XMLID_92_);}
	.st35{fill:#F0F0F0;stroke:#45413C;stroke-linecap:round;stroke-linejoin:round;stroke-miterlimit:10;}
	.st36{fill:#EBCB00;stroke:#45413C;stroke-linecap:round;stroke-linejoin:round;stroke-miterlimit:10;}
	.st37{fill:#BDBEC0;stroke:#45413C;stroke-linecap:round;stroke-linejoin:round;stroke-miterlimit:10;}
	.st38{fill:#F0F0F0;}
	.st39{fill:#FFFFFF;}
	.st40{fill:url(#XMLID_93_);}
	.st41{fill:url(#XMLID_94_);}
	.st42{fill:#FFE500;stroke:#45413C;stroke-linecap:round;stroke-linejoin:round;stroke-miterlimit:10;}
	.st43{fill:#E04122;}
	.st44{fill:#8CFFE4;stroke:#45413C;stroke-linecap:round;stroke-linejoin:round;stroke-miterlimit:10;}
	.st45{fill:#E5FFF9;}
	.st46{fill:#E0E0E0;}
	.st47{fill:#9CEB60;}
	.st48{fill:#6DD627;stroke:#45413C;stroke-linecap:round;stroke-linejoin:round;stroke-miterlimit:10;}
	.st49{fill:#E8F4FA;}
	.st50{fill:#F0D5A8;}
	.st51{fill:#DEBB7E;}
	.st52{fill:#B89558;}
	.st53{fill:#00B8F0;stroke:#45413C;stroke-linecap:round;stroke-linejoin:round;stroke-miterlimit:10;}
	.st54{fill:#FFFCE5;}
	.st55{fill:#FF87AF;}
	.st56{fill:#4ACFFF;stroke:#45413C;stroke-linecap:round;stroke-linejoin:round;stroke-miterlimit:10;}
	.st57{fill:#E5F8FF;}
	.st58{fill:none;stroke:#45413C;stroke-miterlimit:10;}
	.st59{fill:none;stroke:#FF6242;stroke-linecap:round;stroke-linejoin:round;stroke-miterlimit:10;}
	.st60{fill:#BDBEC0;}
	.st61{fill:#B89558;stroke:#45413C;stroke-linecap:round;stroke-linejoin:round;stroke-miterlimit:10;}
	.st62{fill:#FF6242;stroke:#45413C;stroke-linecap:round;stroke-linejoin:round;stroke-miterlimit:10;}
	.st63{fill:#525252;stroke:#45413C;stroke-linecap:round;stroke-linejoin:round;stroke-miterlimit:10;}
	.st64{fill:#525252;}
	.st65{fill:#00DBA8;}
	.st66{fill:#00AD85;}
	.st67{fill:#BF8DF2;}
	.st68{fill:#DABFF5;}
	.st69{fill:#00F5BC;}
	.st70{fill:#DAEDF7;}
	.st71{fill:#C0DCEB;}
	.st72{fill:#ADC4D9;}
	.st73{fill:#ADC4D9;stroke:#45413C;stroke-linecap:round;stroke-linejoin:round;stroke-miterlimit:10;}
	.st74{fill:#00DFEB;stroke:#45413C;stroke-linecap:round;stroke-linejoin:round;stroke-miterlimit:10;}
	.st75{fill:#627B8C;stroke:#45413C;stroke-linecap:round;stroke-linejoin:round;stroke-miterlimit:10;}
	.st76{fill:#8CA4B8;}
	.st77{fill:#00DBA8;stroke:#45413C;stroke-linecap:round;stroke-linejoin:round;stroke-miterlimit:10;}
	.st78{fill:#FF8A14;}
	.st79{fill:#BF8256;}
	.st80{fill:#DEA47A;}
	.st81{fill:#915E3A;}
	.st82{fill:#FFA694;}
	.st83{fill:#E5FEFF;stroke:#45413C;stroke-linecap:round;stroke-linejoin:round;stroke-miterlimit:10;}
	.st84{fill:#803EC2;stroke:#45413C;stroke-linecap:round;stroke-linejoin:round;stroke-miterlimit:10;}
	.st85{fill:#9F5AE5;}
	.st86{fill:#803EC2;}
</style>
</svg>
