<?xml version="1.0" encoding="UTF-8" standalone="no"?>
<svg
   xmlns:dc="http://purl.org/dc/elements/1.1/"
   xmlns:cc="http://creativecommons.org/ns#"
   xmlns:rdf="http://www.w3.org/1999/02/22-rdf-syntax-ns#"
   xmlns:svg="http://www.w3.org/2000/svg"
   xmlns="http://www.w3.org/2000/svg"
   xmlns:sodipodi="http://sodipodi.sourceforge.net/DTD/sodipodi-0.dtd"
   xmlns:inkscape="http://www.inkscape.org/namespaces/inkscape"
   inkscape:version="1.0 (4035a4fb49, 2020-05-01)"
   sodipodi:docname="gavel.svg"
   id="svg10"
   version="1.1"
   viewBox="0 0 512 512">
  <metadata
     id="metadata14">
    <rdf:RDF>
      <cc:Work
         rdf:about="">
        <dc:format>image/svg+xml</dc:format>
        <dc:type
           rdf:resource="http://purl.org/dc/dcmitype/StillImage" />
      </cc:Work>
    </rdf:RDF>
  </metadata>
  <sodipodi:namedview
     inkscape:current-layer="svg10"
     inkscape:window-maximized="1"
     inkscape:window-y="-8"
     inkscape:window-x="1358"
     inkscape:cy="256"
     inkscape:cx="256"
     inkscape:zoom="1.6601562"
     showgrid="false"
     id="namedview12"
     inkscape:window-height="1017"
     inkscape:window-width="1920"
     inkscape:pageshadow="2"
     inkscape:pageopacity="0"
     guidetolerance="10"
     gridtolerance="10"
     objecttolerance="10"
     borderopacity="1"
     bordercolor="#666666"
     pagecolor="#ffffff" />
  <defs
     id="defs4">
    <style
       id="style2">.fa-secondary{opacity:.4}</style>
  </defs>
  <path
     style="opacity:1;fill:#625120;fill-opacity:1"
     id="path6"
     class="fa-secondary"
     d="M442.75 182.39L329.61 295.53 290 255.93l-81 81L175 303l81-81-39.6-39.6L329.61 69.26z" />
  <path
     style="fill:#e67f02;fill-opacity:1"
     id="path8"
     class="fa-primary"
     d="M169 297.37a31.9 31.9 0 0 0-45.16 0L9.35 412.12a32 32 0 0 0 0 45.25l45.17 45.26a31.91 31.91 0 0 0 45.17 0l114.52-114.75a32 32 0 0 0 0-45.25zm7.49-109.32a23.92 23.92 0 0 0 33.87 0L334.61 63.6a24 24 0 0 0 0-33.94L312 7a23.93 23.93 0 0 0-33.88 0L153.94 131.48a24 24 0 0 0 0 33.94zM504 199.36l-22.6-22.62a23.9 23.9 0 0 0-33.87 0L323.32 301.19a24 24 0 0 0 0 33.94l22.58 22.62a23.91 23.91 0 0 0 33.88 0L504 233.3a24 24 0 0 0 0-33.94z" />
</svg>
