<?xml version="1.0" encoding="UTF-8" standalone="no"?>
<svg
   xmlns:dc="http://purl.org/dc/elements/1.1/"
   xmlns:cc="http://creativecommons.org/ns#"
   xmlns:rdf="http://www.w3.org/1999/02/22-rdf-syntax-ns#"
   xmlns:svg="http://www.w3.org/2000/svg"
   xmlns="http://www.w3.org/2000/svg"
   xmlns:sodipodi="http://sodipodi.sourceforge.net/DTD/sodipodi-0.dtd"
   xmlns:inkscape="http://www.inkscape.org/namespaces/inkscape"
   inkscape:version="1.0 (4035a4fb49, 2020-05-01)"
   sodipodi:docname="sack-dollar.svg"
   id="svg10"
   version="1.1"
   viewBox="0 0 512 512">
  <metadata
     id="metadata14">
    <rdf:RDF>
      <cc:Work
         rdf:about="">
        <dc:format>image/svg+xml</dc:format>
        <dc:type
           rdf:resource="http://purl.org/dc/dcmitype/StillImage" />
      </cc:Work>
    </rdf:RDF>
  </metadata>
  <sodipodi:namedview
     inkscape:current-layer="svg10"
     inkscape:window-maximized="1"
     inkscape:window-y="-8"
     inkscape:window-x="1358"
     inkscape:cy="248.39657"
     inkscape:cx="280.05279"
     inkscape:zoom="0.83007813"
     showgrid="false"
     id="namedview12"
     inkscape:window-height="1017"
     inkscape:window-width="1920"
     inkscape:pageshadow="2"
     inkscape:pageopacity="0"
     guidetolerance="10"
     gridtolerance="10"
     objecttolerance="10"
     borderopacity="1"
     bordercolor="#666666"
     pagecolor="#ffffff" />
  <defs
     id="defs4">
    <style
       id="style2">.fa-secondary{opacity:.4}</style>
  </defs>
  <path
     style="fill:#1c6b6c;fill-opacity:1;opacity:1"
     id="path6"
     class="fa-secondary"
     d="M192 96h128l47.4-71.12A16 16 0 0 0 354.09 0H157.94a16 16 0 0 0-13.31 24.88zm128 32H192C-10.38 243.4.09 396.64.09 416c0 53 49.11 96 109.68 96h292.48c60.58 0 109.68-43 109.68-96 0-19 9.35-173.24-191.93-288zm-46.58 278v17.34a8.68 8.68 0 0 1-8.7 8.62h-17.41a8.69 8.69 0 0 1-8.71-8.62v-17.51a63.14 63.14 0 0 1-34.16-12.17 8.52 8.52 0 0 1-.67-13l12.84-12.06a8.93 8.93 0 0 1 11-.76 26.71 26.71 0 0 0 13.93 4h30.58c7.07 0 12.84-6.35 12.84-14.22 0-6.46-3.92-12.06-9.58-13.67l-49-14.54c-20.24-6-34.39-25.2-34.39-46.74 0-26.38 20.68-47.82 46.46-48.57v-17.48a8.69 8.69 0 0 1 8.75-8.62h17.41a8.68 8.68 0 0 1 8.7 8.62v17.55a63.15 63.15 0 0 1 34.17 12.17 8.54 8.54 0 0 1 1.58 12 8.72 8.72 0 0 1-.92 1l-12.73 12.2a8.91 8.91 0 0 1-11 .75 26.8 26.8 0 0 0-13.93-4h-30.57c-7.07 0-12.84 6.35-12.84 14.21 0 6.46 3.92 12.06 9.57 13.68l49 14.54c20.24 6 34.38 25.2 34.38 46.74-.14 26.4-20.92 47.94-46.6 48.54z" />
  <path
     style="fill:#f5c800;fill-opacity:1"
     id="path8"
     class="fa-primary"
     d="M285.64 310.72l-49-14.54c-5.65-1.62-9.57-7.22-9.57-13.68 0-7.86 5.77-14.21 12.84-14.21h30.56a26.8 26.8 0 0 1 13.93 4 8.91 8.91 0 0 0 11-.75l12.73-12.2a8.72 8.72 0 0 0 .92-1 8.54 8.54 0 0 0-1.56-12 63.15 63.15 0 0 0-34.17-12.17v-17.55a8.68 8.68 0 0 0-8.7-8.62H247.2a8.69 8.69 0 0 0-8.74 8.62v17.48c-25.78.75-46.46 22.19-46.46 48.57 0 21.54 14.15 40.74 34.39 46.74l49 14.54c5.66 1.61 9.58 7.21 9.58 13.67 0 7.87-5.77 14.22-12.84 14.22h-30.58a26.71 26.71 0 0 1-13.93-4 8.93 8.93 0 0 0-11 .76l-12.84 12.06a8.52 8.52 0 0 0 .67 13 63.14 63.14 0 0 0 34.16 12.17v17.51a8.69 8.69 0 0 0 8.71 8.62h17.41a8.68 8.68 0 0 0 8.7-8.62V406c25.68-.6 46.46-22.14 46.6-48.54-.03-21.54-14.15-40.74-34.39-46.74zM329 96H183a8 8 0 0 0-8 8v16a8 8 0 0 0 8 8h146a8 8 0 0 0 8-8v-16a8 8 0 0 0-8-8z" />
</svg>
